<?xml version="1.0" encoding="UTF-8"?>
<svg version="1.1" xmlns="http://www.w3.org/2000/svg" width="1080" height="336">
<path d="M0 0 C0.74137207 -0.00067474 1.48274414 -0.00134949 2.24658203 -0.00204468 C13.83095138 0.01471294 25.01149384 0.53882591 36.3125 3.25 C37.02712402 3.41628906 37.74174805 3.58257812 38.47802734 3.75390625 C55.52662607 7.85925444 72.91214983 14.8921563 82.75 30.1875 C88.15242261 40.10469505 90.07042819 50.17850547 87.25 61.25 C85.29957732 67.08251398 82.11551938 72.42978749 78.3125 77.25 C77.6525 77.25 76.9925 77.25 76.3125 77.25 C76.3125 77.91 76.3125 78.57 76.3125 79.25 C67.38540694 87.3830968 54.85296396 92.18152385 43.3125 95.25 C44.0859375 95.7346875 44.859375 96.219375 45.65625 96.71875 C61.85531083 107.14388816 70.75758218 119.52107145 76.5 138 C80.23033936 151.5094963 80.23033936 151.5094963 88.76953125 162.125 C89.54683594 162.49625 90.32414063 162.8675 91.125 163.25 C91.91519531 163.641875 92.70539063 164.03375 93.51953125 164.4375 C94.11121094 164.705625 94.70289063 164.97375 95.3125 165.25 C95.41433594 164.13367188 95.51617187 163.01734375 95.62109375 161.8671875 C96.25849056 156.81900479 97.73799441 152.17858407 99.375 147.375 C99.83918335 146.00178589 99.83918335 146.00178589 100.31274414 144.60083008 C103.43888822 135.56010582 107.1893646 126.87566349 111.3125 118.25 C111.78574707 117.25589111 111.78574707 117.25589111 112.26855469 116.24169922 C120.42993663 99.229658 129.45304229 82.69305028 140.3125 67.25 C140.73950195 66.63898438 141.16650391 66.02796875 141.60644531 65.3984375 C142.89866166 63.55324134 144.19776145 61.7131341 145.5 59.875 C145.91161377 59.29089355 146.32322754 58.70678711 146.74731445 58.10498047 C149.1722391 54.70609872 151.77877264 51.6051362 154.5625 48.5 C156.38668584 46.15953515 157.26801461 44.90838375 157.46875 41.9375 C157.01601457 39.22108742 156.2583759 36.83735703 155.3125 34.25 C154.95027344 33.16847656 154.58804688 32.08695313 154.21484375 30.97265625 C151.9589975 24.64032899 149.42766168 19.54092217 145.3125 14.25 C145.3125 13.59 145.3125 12.93 145.3125 12.25 C141.69052806 10.75859979 138.03683382 9.4625738 134.3125 8.25 C134.3125 5.61 134.3125 2.97 134.3125 0.25 C158.68394263 -0.78220228 184.10318495 6.36910375 202.5 22.6875 C204.11057654 24.20154357 205.71510435 25.72205633 207.3125 27.25 C208.00085938 27.86359375 208.68921875 28.4771875 209.3984375 29.109375 C230.6842417 48.79664054 236.48809677 81.30042507 243.75 108.125 C246.97862049 120.04631792 250.29719698 131.90013966 254.1875 143.625 C254.53224365 144.67413574 254.8769873 145.72327148 255.23217773 146.80419922 C258.46261497 156.30107562 261.75183818 165.49917592 270.125 171.5625 C272.40327517 172.27852934 274.07415209 172.31938506 276.44921875 172.29296875 C277.72410156 172.27878906 278.99898438 172.26460937 280.3125 172.25 C280.31608253 171.31711135 280.31608253 171.31711135 280.31973743 170.36537647 C280.37906425 155.18077792 280.45472598 139.99635418 280.54821491 124.81193256 C280.59303946 117.46863052 280.63248423 110.12537553 280.65893555 102.78198242 C280.68202439 96.37596615 280.71554207 89.97010048 280.76120156 83.56420392 C280.78498833 80.17731023 280.80381169 76.79056434 280.81011391 73.40358925 C280.81980845 69.60778603 280.84793276 65.81251599 280.88012695 62.0168457 C280.87869186 60.91344345 280.87725677 59.8100412 280.8757782 58.67320251 C281.06388028 42.87852008 285.46118951 29.199737 296.25 17.4375 C313.43135313 1.33584939 335.46348341 -0.61752531 357.91015625 -0.0703125 C366.33846213 0.22400593 374.13850491 1.14085515 382.3125 3.25 C383.00939941 3.42160645 383.70629883 3.59321289 384.42431641 3.77001953 C403.40714843 8.50831733 421.95062806 17.37590759 433.125 34.1875 C439.84715759 45.82113301 440.41450823 58.34811501 437.3125 71.25 C431.84559816 88.35268125 419.94900718 101.87100844 404.16650391 110.30761719 C393.24034678 115.8613394 382.42790263 119.42285111 370.3125 121.25 C369.18972656 121.43691406 368.06695313 121.62382812 366.91015625 121.81640625 C362.86416986 122.30403327 358.94328355 122.36088764 354.875 122.3125 C353.77768555 122.30573242 353.77768555 122.30573242 352.65820312 122.29882812 C350.87626581 122.28718148 349.09437137 122.26925191 347.3125 122.25 C346.9825 120.6 346.6525 118.95 346.3125 117.25 C346.84617187 117.09144531 347.37984375 116.93289062 347.9296875 116.76953125 C357.76417818 113.6898724 366.11346465 110.62130196 371.3125 101.25 C377.99536569 87.34706076 377.04979717 74.58005537 372.3125 60.25 C369.15347555 52.3660946 364.91957657 45.60854045 359.3125 39.25 C358.65636719 38.49976563 358.00023437 37.74953125 357.32421875 36.9765625 C348.10442165 27.09941241 335.76952698 19.37039575 322.140625 17.91015625 C315.48360689 17.70315942 309.98001425 18.20993999 304.69140625 22.59375 C303.03429055 24.58416659 302.67406996 25.88391213 302.3125 28.4375 C302.18875 29.15292969 302.065 29.86835937 301.9375 30.60546875 C302.63198371 35.50302573 305.3058242 39.58253096 309.09619141 42.73217773 C311.06462618 44.03772123 313.06479902 45.22009355 315.125 46.375 C316.55862887 47.2269204 317.99093839 48.08106521 319.421875 48.9375 C320.09927734 49.33710937 320.77667969 49.73671875 321.47460938 50.1484375 C331.07614899 55.90323914 338.83805456 63.37834813 342.3125 74.25 C343.54972631 79.89686375 343.44617684 85.4633135 343.42602539 91.21240234 C343.42617142 92.30567841 343.42631744 93.39895447 343.4264679 94.52536011 C343.42577279 98.12890628 343.41799919 101.73240038 343.41015625 105.3359375 C343.40829064 107.83842948 343.40686741 110.34092183 343.40586853 112.84341431 C343.40244415 118.75060622 343.39456745 124.65778151 343.38451904 130.56496489 C343.37025912 139.13483214 343.36503902 147.70470577 343.35871124 156.27458191 C343.34902156 168.26640334 343.32985709 180.25817617 343.3125 192.25 C322.8525 192.25 302.3925 192.25 281.3125 192.25 C281.3125 190.27 281.3125 188.29 281.3125 186.25 C280.3121875 186.86359375 279.311875 187.4771875 278.28125 188.109375 C265.76208978 195.23624633 249.76137265 196.17655957 236.0625 192.625 C224.89686361 189.01628644 216.58805869 183.51174306 208.3125 175.25 C207.61253906 174.56164062 206.91257812 173.87328125 206.19140625 173.1640625 C199.48003149 166.12562269 188.3125 151.463031 188.3125 141.25 C175.1125 141.25 161.9125 141.25 148.3125 141.25 C152.26776445 152.61870639 152.26776445 152.61870639 157.1875 163.4375 C157.52773193 164.10402588 157.86796387 164.77055176 158.21850586 165.45727539 C162.69642885 174.09378982 167.90560065 182.0089507 174.02734375 189.5703125 C175.3125 191.25 175.3125 191.25 175.3125 192.25 C147.5925 192.25 119.8725 192.25 91.3125 192.25 C90.9825 190.27 90.6525 188.29 90.3125 186.25 C89.07886719 186.75660156 89.07886719 186.75660156 87.8203125 187.2734375 C72.6628993 193.32940167 60.16247168 195.13359873 44.3125 190.25 C34.0106847 185.68104586 25.14710494 178.92040005 20.3125 168.5625 C15.93972118 156.41589216 17.41727867 144.97516293 19.28125 132.48364258 C21.2589912 119.58708538 21.2589912 119.58708538 17.25 107.6875 C10.67058451 102.22798502 3.65168388 101.69455208 -4.6875 101.25 C-4.6875 98.61 -4.6875 95.97 -4.6875 93.25 C-3.86507812 93.15203125 -3.04265625 93.0540625 -2.1953125 92.953125 C5.17373762 91.96604669 11.58470507 90.42185175 18.3125 87.25 C19.02277344 86.96125 19.73304688 86.6725 20.46484375 86.375 C22.79231148 84.95785263 23.30623718 83.75417003 24.3125 81.25 C24.60511719 80.59902344 24.89773437 79.94804687 25.19921875 79.27734375 C28.10080186 71.70491954 27.9178196 65.34888519 24.95703125 57.7890625 C16.92113212 40.83460255 4.25134993 27.58532098 -13.5 20.9375 C-22.25694818 17.87192139 -32.34302814 16.43806527 -41.3125 19.5 C-45.45063292 21.5208279 -45.45063292 21.5208279 -47.6875 25.25 C-48.36388251 29.73638526 -48.14795625 33.20350852 -46.3125 37.375 C-41.11809688 43.06410818 -34.41527705 46.80098196 -27.9375 50.875 C-16.97456856 57.84440227 -10.59292949 65.37590227 -7.6875 78.25 C-7.30290283 82.12445135 -7.30618085 85.95920026 -7.34692383 89.85009766 C-7.34626671 91.52014862 -7.34626671 91.52014862 -7.34559631 93.22393799 C-7.34767122 96.87083021 -7.37094127 100.51725148 -7.39453125 104.1640625 C-7.40013181 106.70567575 -7.40439973 109.24729226 -7.40739441 111.78890991 C-7.41764308 117.77396834 -7.44123997 123.75882742 -7.47144288 129.74380624 C-7.51433113 138.43317765 -7.5299022 147.12260671 -7.54886627 155.8120575 C-7.57788248 167.95817607 -7.63539549 180.10385973 -7.6875 192.25 C-28.1475 192.25 -48.6075 192.25 -69.6875 192.25 C-69.84871214 157.53565319 -69.84871214 157.53565319 -69.8828125 142.91015625 C-69.90648228 132.83959743 -69.9342012 122.76917317 -69.98925781 112.69873047 C-70.02934846 105.36217338 -70.05498519 98.0257262 -70.06385398 90.6890626 C-70.06903147 86.81067184 -70.08104603 82.93259526 -70.11042023 79.05430603 C-70.2794443 55.82041161 -70.34749476 34.5211195 -53.28125 16.6015625 C-38.22770432 2.95361897 -19.61702887 0.01593343 0 0 Z M161.3125 53.25 C147.2453383 69.73212508 140.21570309 88.55482218 141.3125 110.25 C141.99721153 118.13112895 143.13086898 125.61429144 145.3125 133.25 C158.5125 133.25 171.7125 133.25 185.3125 133.25 C182.97230556 124.6484943 182.97230556 124.6484943 180.56665039 116.06689453 C180.10585838 114.44933762 180.10585838 114.44933762 179.63575745 112.79910278 C179.31380905 111.67172699 178.99186066 110.5443512 178.66015625 109.3828125 C178.14804848 107.587939 178.14804848 107.587939 177.62559509 105.75680542 C176.90739938 103.2406036 176.18885259 100.72450196 175.4699707 98.20849609 C174.38023095 94.39331357 173.29260702 90.57753199 172.20507812 86.76171875 C171.50273382 84.30204631 170.80026397 81.84240971 170.09765625 79.3828125 C169.77773209 78.25948517 169.45780792 77.13615784 169.12818909 75.97879028 C166.95177722 68.37213671 164.66528982 60.80391521 162.3125 53.25 C161.9825 53.25 161.6525 53.25 161.3125 53.25 Z " fill="#FE9800" transform="translate(199.6875,77.75)"/>
<path d="M0 0 C6.86766893 4.63019701 12.66675038 6.6964899 20.9375 5.29296875 C27.12070984 3.8574132 31.89151041 1.89339918 35.6875 -3.45703125 C38.79533267 -8.86240358 39.80000821 -14.95290837 40.9375 -21.01953125 C43.5775 -21.01953125 46.2175 -21.01953125 48.9375 -21.01953125 C50.10474095 -3.03537433 44.38140972 15.75762994 32.62744141 29.51367188 C26.18875907 36.65841803 19.37096483 42.28774397 10.9375 46.98046875 C9.85339844 47.61339844 8.76929688 48.24632812 7.65234375 48.8984375 C-4.93521091 56.07883475 -18.53060326 60.7151859 -32.17578125 65.4609375 C-33.40014893 65.88971191 -34.6245166 66.31848633 -35.88598633 66.76025391 C-38.26357842 67.58978235 -40.64474113 68.40917665 -43.0300293 69.21630859 C-56.07210405 73.75260041 -69.4770652 80.20505884 -79.24609375 90.21875 C-81.0625 91.98046875 -81.0625 91.98046875 -83.0625 91.98046875 C-83.5575 93.46546875 -83.5575 93.46546875 -84.0625 94.98046875 C-84.7225 94.98046875 -85.3825 94.98046875 -86.0625 94.98046875 C-86.2996875 95.49867188 -86.536875 96.016875 -86.78125 96.55078125 C-88.8285499 100.43316093 -91.33619966 104.03364875 -93.78515625 107.671875 C-96.19457827 111.3376953 -97.86151436 114.71174804 -99.0625 118.98046875 C-98.64742187 118.49578125 -98.23234375 118.01109375 -97.8046875 117.51171875 C-85.59749774 104.23193072 -68.41021924 98.38307227 -50.83984375 96.77734375 C-31.99791 96.29729448 -14.1422396 105.29859599 2.38232422 113.3659668 C9.93617532 117.04094084 16.49474682 119.75527957 24.8125 117.04296875 C28.06431214 113.88679814 28.80373985 110.45400277 28.9375 105.98046875 C28.23184567 103.38644368 27.19141639 101.39184641 25.9375 98.98046875 C25.9375 97.99046875 25.9375 97.00046875 25.9375 95.98046875 C28.4375 93.79296875 28.4375 93.79296875 30.9375 91.98046875 C40.86875659 99.77070119 47.99328438 109.18343023 49.75 121.85546875 C50.49083656 132.68814561 46.49775924 141.85451221 40.9375 150.98046875 C38.43359375 153.6796875 38.43359375 153.6796875 35.9375 155.98046875 C35.32648438 156.58890625 34.71546875 157.19734375 34.0859375 157.82421875 C22.22631173 168.90016881 6.32326419 171.84576596 -9.4453125 171.3203125 C-29.26839329 170.1505759 -44.81916801 160.89636412 -60.79394531 149.81689453 C-68.8052891 144.28860778 -75.09524993 140.85267593 -85.0625 141.98046875 C-92.20026407 143.56408843 -98.46517595 146.33931144 -102.75 152.48046875 C-105.75115128 157.59210706 -106.88244063 163.22408159 -108.0625 168.98046875 C-110.7025 168.98046875 -113.3425 168.98046875 -116.0625 168.98046875 C-117.08620528 139.97548587 -109.94140929 111.00659661 -90.6875 88.73046875 C-84.01100079 81.62322766 -76.75073797 76.17659327 -68.3125 71.35546875 C-67.40262329 70.83327759 -67.40262329 70.83327759 -66.47436523 70.30053711 C-55.12527933 64.03640279 -42.9305553 59.73091346 -30.6875 55.60546875 C-29.35399546 55.15154432 -28.02066131 54.69711901 -26.6875 54.2421875 C-23.48079405 53.15004852 -20.27249726 52.06288728 -17.0625 50.98046875 C-18.1040625 50.83351563 -19.145625 50.6865625 -20.21875 50.53515625 C-36.76369178 48.02486234 -50.9099182 41.75670502 -65.99047852 34.67578125 C-66.97846436 34.21300781 -67.9664502 33.75023437 -68.984375 33.2734375 C-69.86706055 32.85602295 -70.74974609 32.4386084 -71.65917969 32.00854492 C-76.6771264 29.86200148 -81.64493941 29.26585291 -87.0625 29.98046875 C-90.56140004 32.09438752 -91.76828686 33.09782934 -93.0625 36.98046875 C-93.44791805 42.18361239 -92.77040145 44.62427946 -90.0625 48.98046875 C-90.32277957 52.0170637 -90.8725858 52.79055455 -93.0625 54.98046875 C-96.30018644 54.83501528 -97.80431326 54.19465148 -100.30859375 52.1171875 C-108.82755406 42.59599656 -114.51341363 32.76823218 -114.33984375 19.7890625 C-113.22242291 8.47320924 -107.32026842 -2.71744903 -99.02734375 -10.4296875 C-67.98279605 -35.54923206 -28.58957627 -20.60345739 0 0 Z " fill="#FE9800" transform="translate(839.0625,101.01953125)"/>
<path d="M0 0 C20.79 0 41.58 0 63 0 C63 62.7 63 125.4 63 190 C42.54 190 22.08 190 1 190 C-0.69633134 188.30366866 -0.12225736 186.18743698 -0.12908131 183.9242 C-0.12616847 183.19172361 -0.12325563 182.45924723 -0.12025452 181.70457458 C-0.12110894 180.93192876 -0.12196337 180.15928294 -0.12284368 179.36322361 C-0.12450082 176.75441446 -0.11897331 174.14566854 -0.11352539 171.53686523 C-0.11324354 169.67467246 -0.1134012 167.81247957 -0.1139679 165.95028687 C-0.11425597 160.87818414 -0.10835771 155.80610485 -0.10139394 150.7340076 C-0.09516197 145.43953999 -0.09455673 140.1450719 -0.09336853 134.8506012 C-0.09025475 124.81728576 -0.08204073 114.78398115 -0.07201904 104.75067049 C-0.06085935 93.33127715 -0.05534782 81.91188331 -0.05032361 70.49248588 C-0.03985815 46.99498319 -0.02151209 23.49749536 0 0 Z " fill="#FE9800" transform="translate(650,80)"/>
<path d="M0 0 C20.46 0 40.92 0 62 0 C62.0825 5.775 62.165 11.55 62.25 17.5 C62.28641602 19.28599609 62.32283203 21.07199219 62.36035156 22.91210938 C62.52437084 36.7107113 60.3720292 49.22530886 54.3125 61.75 C53.97508789 62.48186523 53.63767578 63.21373047 53.29003906 63.96777344 C52.20576857 66.31785284 51.10406871 68.6591643 50 71 C42.22297346 87.60300245 36.81010767 102.66075125 35 121 C32.36 121 29.72 121 27 121 C26.86464844 119.70449219 26.72929688 118.40898437 26.58984375 117.07421875 C24.32082111 97.52314717 17.29608074 81.54921375 9.21777344 63.73291016 C3.46541672 50.87545681 -0.15479118 38.54300384 -0.09765625 24.31640625 C-0.09515869 23.03451416 -0.09266113 21.75262207 -0.09008789 20.43188477 C-0.08098389 18.82498779 -0.07187988 17.21809082 -0.0625 15.5625 C-0.0315625 7.8590625 -0.0315625 7.8590625 0 0 Z " fill="#FE9900" transform="translate(900,80)"/>
<path d="M0 0 C6.47139243 5.24076698 9.84309181 11.49802542 12.4453125 19.3046875 C13.17301349 30.48265186 12.73332245 39.21297874 6.8203125 48.9921875 C-2.14697742 57.72349611 -11.17358003 61.34264504 -23.6171875 61.6796875 C-35.00223906 61.39350588 -44.34310118 57.94553827 -52.3046875 49.6796875 C-58.61245092 41.94293419 -60.2670824 33.56691126 -59.93359375 23.734375 C-58.92183996 14.57643859 -55.4434939 7.45072619 -48.5546875 1.3046875 C-46.24418064 -0.4348627 -44.23699814 -1.44665065 -41.5546875 -2.6953125 C-40.95785156 -2.99308594 -40.36101563 -3.29085937 -39.74609375 -3.59765625 C-27.74083123 -8.6759057 -10.71878369 -7.11307664 0 0 Z " fill="#FE9900" transform="translate(954.5546875,210.6953125)"/>
</svg>
